<?xml version="1.0" encoding="utf-8"?>
<!-- Generator: Adobe Illustrator 17.0.0, SVG Export Plug-In . SVG Version: 6.00 Build 0)  -->
<!DOCTYPE svg PUBLIC "-//W3C//DTD SVG 1.1//EN" "http://www.w3.org/Graphics/SVG/1.1/DTD/svg11.dtd">
<svg version="1.1" xmlns="http://www.w3.org/2000/svg" xmlns:xlink="http://www.w3.org/1999/xlink" x="0px" y="0px" width="800px"
	 height="600px" viewBox="0 0 800 600" enable-background="new 0 0 800 600" xml:space="preserve">
<symbol  id="chrome_x5F_icon" viewBox="-89.75 -89.75 179.5 179.5">
	<g id="Layer_3_2_">
		<path fill="#5EBA62" d="M-11.55-89.1c-19.867,2.367-37.167,10.917-51.9,25.65C-80.983-45.95-89.75-24.8-89.75,0
			c0,24.333,8.433,45.15,25.3,62.45l37.4-74.6c0.333-0.7,0.683-1.383,1.05-2.05c1.333-2.367,3.033-4.583,5.1-6.65
			c5.633-5.633,12.417-8.517,20.35-8.65c0.167,0,0.35,0,0.55,0c8.167,0,15.133,2.883,20.9,8.65c1.733,1.733,3.2,3.55,4.4,5.45
			c0.227,0.363,0.444,0.73,0.65,1.1l-2.15-4.175c-0.52-1.015-1.036-2.032-1.55-3.05L-11.55-89.1z"/>
		<path fill="#FAD43A" d="M-11.55-89.1l33.8,67.575c0.514,1.018,1.03,2.035,1.55,3.05l2.15,4.175l0.125,0.25
			c0.04,0.081,0.082,0.164,0.125,0.25c2.233,4.133,3.35,8.733,3.35,13.8v0.05c0,8.167-2.883,15.133-8.65,20.9
			c-5.6,5.6-12.75,8.483-21.45,8.65H85c3.166-9.2,4.75-19.067,4.75-29.6c0-24.8-8.75-45.95-26.25-63.45
			C45.967-80.983,24.8-89.75,0-89.75C-3.933-89.75-7.783-89.533-11.55-89.1z"/>
		<path fill="#DF5E4D" d="M85,29.6H-0.55c-0.333,0-0.667-0.017-1-0.05c-7.5-0.333-13.95-3.2-19.35-8.6
			c-5.767-5.767-8.65-12.733-8.65-20.9V0c0-4.367,0.833-8.417,2.5-12.15l-37.4,74.6c0.333,0.333,0.667,0.667,1,1
			C-45.917,80.983-24.767,89.75,0,89.75c24.8,0,45.967-8.767,63.5-26.3C73.567,53.383,80.733,42.1,85,29.6z"/>
		<path fill="#4A8FCA" d="M-0.55,25.6c0.167,0,0.333,0,0.5,0H0c7.1,0,13.15-2.5,18.15-7.5c4.967-4.967,7.45-11,7.45-18.1
			c0-7.067-2.483-13.1-7.45-18.1c-5-5-11.05-7.5-18.15-7.5c-0.2,0-0.383,0-0.55,0c-6.867,0.133-12.733,2.633-17.6,7.5
			c-4.967,5-7.45,11.033-7.45,18.1c0,7.1,2.483,13.133,7.45,18.1C-13.283,22.967-7.417,25.467-0.55,25.6z"/>
		<path fill="#E6F6FE" d="M25.95-14.3c-0.207-0.37-0.423-0.737-0.65-1.1c-1.2-1.9-2.667-3.717-4.4-5.45
			C15.133-26.617,8.167-29.5,0-29.5c-0.2,0-0.383,0-0.55,0c-7.933,0.133-14.717,3.017-20.35,8.65c-2.067,2.067-3.767,4.283-5.1,6.65
			c-0.367,0.667-0.717,1.35-1.05,2.05c-1.667,3.733-2.5,7.783-2.5,12.15v0.05c0,8.167,2.883,15.133,8.65,20.9
			c5.4,5.4,11.85,8.267,19.35,8.6c0.333,0.034,0.667,0.05,1,0.05c8.7-0.167,15.85-3.05,21.45-8.65
			c5.767-5.767,8.65-12.733,8.65-20.9V0c0-5.067-1.117-9.667-3.35-13.8c-0.043-0.086-0.085-0.169-0.125-0.25L25.95-14.3z
			 M-0.55,25.6c-6.867-0.133-12.733-2.633-17.6-7.5c-4.967-4.967-7.45-11-7.45-18.1c0-7.067,2.483-13.1,7.45-18.1
			c4.867-4.867,10.733-7.367,17.6-7.5c0.167,0,0.35,0,0.55,0c7.1,0,13.15,2.5,18.15,7.5c4.967,5,7.45,11.033,7.45,18.1
			c0,7.1-2.483,13.133-7.45,18.1c-5,5-11.05,7.5-18.15,7.5h-0.05C-0.217,25.6-0.383,25.6-0.55,25.6z"/>
	</g>
</symbol>
<symbol  id="headphones" viewBox="-118 -93.963 236 187.925">
	<g id="Layer_3_3_">
		<path fill="#999999" d="M105.5-31.363v30h7.5c3.333,0,5-1.667,5-5v-20c0-3.333-1.667-5-5-5H105.5z M-105.5-31.363h-7.5
			c-3.333,0-5,1.667-5,5v20c0,3.333,1.666,5,5,5h7.5V-31.363z M-94.35-51.863H-93c0.733,0,1.433,0.066,2.1,0.2
			c1.867-14.867,4.333-22.9,7.4-24.1c8.367-5.233,31.233-8.583,68.6-10.05c0-0.166,0-0.35,0-0.55v-2.95
			c-39.167,1.4-63.05,4.783-71.65,10.15C-89.85-77.895-92.45-68.796-94.35-51.863z"/>
		<path fill="#CCCCCC" d="M105.45,8.488c0.033-0.433,0.05-0.883,0.05-1.35v-8.5v-30v-10.5c0-2.767-0.983-5.117-2.95-7.05
			c-1.933-1.967-4.283-2.95-7.05-2.95H93c-2.767,0-5.133,0.983-7.1,2.95c-1.933,1.934-2.9,4.283-2.9,7.05v49
			c0,2.767,0.967,5.133,2.9,7.1c1.967,1.934,4.333,2.9,7.1,2.9h2.5c2.767,0,5.117-0.967,7.05-2.9
			C104.183,12.604,105.15,10.688,105.45,8.488z M-90.9-51.663c-0.667-0.133-1.367-0.2-2.1-0.2h-1.35h-1.15
			c-2.767,0-5.133,0.983-7.1,2.95c-1.933,1.934-2.9,4.283-2.9,7.05v10.5v30v4.25l0.15,6.15c0.133,0.667,0.317,1.3,0.55,1.9
			c0.5,1.2,1.233,2.3,2.2,3.3c1.967,1.934,4.333,2.9,7.1,2.9h2.5c2.767,0,5.117-0.967,7.05-2.9c1.967-1.966,2.95-4.333,2.95-7.1v-49
			c0-2.767-0.983-5.117-2.95-7.05C-87.383-50.38-89.033-51.296-90.9-51.663z"/>
		<path fill="#B2B2B2" d="M-105.5,2.887v-4.25h-7.5l1.75,36.05c0.5,4,1.967,7.483,4.4,10.45c0.667,0.867,1.35,1.716,2.05,2.55
			c24.9,31.567,59.367,46.983,103.4,46.25s79.65-16.717,106.85-47.95c0.233-0.267,0.5-0.55,0.8-0.85
			c3.333-4.067,4.967-6.85,4.9-8.35L113-1.363h-7.5v8.5c0,0.466-0.017,0.916-0.05,1.35l-2.3,21.85c-1.2,4.367-3.483,8.15-6.85,11.35
			C30.166,89.12-33.433,90.005-94.5,44.338c-0.5-0.367-0.983-0.75-1.45-1.15c-3.8-3.267-6.1-6.783-6.9-10.55l-2.5-23.6
			c-0.1-0.6-0.15-1.233-0.15-1.9V2.887z M-14.9-89.312v2.95c0,0.2,0,0.383,0,0.55c0.1,0.933,0.467,1.767,1.1,2.5
			c0.767,0.8,1.667,1.2,2.7,1.2H7.3c1.034,0,1.934-0.4,2.7-1.2c0.767-0.867,1.15-1.883,1.15-3.05v-3.35
			c0-1.167-0.383-2.15-1.15-2.95c-0.767-0.867-1.667-1.3-2.7-1.3h-18.4c-1.033,0-1.933,0.433-2.7,1.3c-0.733,0.8-1.1,1.783-1.1,2.95
			V-89.312z"/>
	</g>
</symbol>
<g id="Layer_2">
	<rect fill="#FFFFFF" width="800" height="600"/>
</g>
<g id="Layer_1">
	<g id="chrome">
		
			<use xlink:href="#chrome_x5F_icon"  width="179.5" height="179.5" x="-89.75" y="-89.75" transform="matrix(1 0 0 -1 405.9502 274.1003)" overflow="visible"/>
	</g>
	<g id="hphones">
		
			<use xlink:href="#headphones"  width="236" height="187.925" x="-118" y="-93.963" transform="matrix(1 0 0 -1 406 254.988)" overflow="visible"/>
		<text transform="matrix(1 0 0 1 284.0002 410.2502)" fill="#BFBFBF" font-family="'GothamRounded-Medium'" font-size="33.4616">chrome</text>
		<text transform="matrix(1 0 0 1 411.6552 410.2502)" fill="#808080" font-family="'GothamRounded-Medium'" font-size="33.4616">speech</text>
	</g>
</g>
</svg>
