<?xml version="1.0" encoding="utf-8"?>
<!-- Generator: Adobe Illustrator 16.0.0, SVG Export Plug-In . SVG Version: 6.00 Build 0)  -->
<!DOCTYPE svg PUBLIC "-//W3C//DTD SVG 1.1//EN" "http://www.w3.org/Graphics/SVG/1.1/DTD/svg11.dtd">
<svg version="1.1" id="Layer_1" xmlns="http://www.w3.org/2000/svg" xmlns:xlink="http://www.w3.org/1999/xlink" x="0px" y="0px"
	 width="800px" height="600px" viewBox="0 0 800 600" enable-background="new 0 0 800 600" xml:space="preserve">
<symbol  id="asdf" viewBox="11.54 -121.221 452.132 102.896">
	<g id="Layer_3_3_">
		<polygon fill-rule="evenodd" clip-rule="evenodd" fill="#894B9E" points="186.55,-65.05 179.8,-58.3 186.65,-51.45 193.4,-58.2 		
			"/>
		<polygon fill-rule="evenodd" clip-rule="evenodd" fill="#2481BC" points="179.9,-71.95 180,-71.8 179.9,-71.7 186.55,-65.05 
			193.25,-71.75 186.5,-78.55 		"/>
		<polygon fill-rule="evenodd" clip-rule="evenodd" fill="#C23A2C" points="200.25,-65.05 207,-71.85 200.15,-78.7 193.4,-71.9 		
			"/>
		<polygon fill-rule="evenodd" clip-rule="evenodd" fill="#F0C514" points="179.9,-71.7 180,-71.8 179.9,-71.95 173,-78.85 
			165.95,-71.8 172.95,-64.75 		"/>
		<polygon fill-rule="evenodd" clip-rule="evenodd" fill="#20A286" points="194.15,-85.55 187.1,-92.6 180.05,-85.55 187.1,-78.5 		
			"/>
	</g>
	<text transform="matrix(1 0 0 -1 11.54 -101.8003)"><tspan x="0" y="0" fill="#34495E" font-family="'Virgo01'" font-size="102.7709">Cin</tspan><tspan x="149.941" y="0" fill="#3B3632" font-family="'Virgo01'" font-size="102.7709"> </tspan><tspan x="200.072" y="0" fill="#2481BC" font-family="'Virgo01'" font-size="102.7709">nect</tspan></text>
</symbol>
<rect fill-rule="evenodd" clip-rule="evenodd" fill="#EEF3F6" width="800" height="600"/>
<use xlink:href="#asdf"  width="452.132" height="102.896" id="XMLID_1_" x="11.54" y="-121.221" transform="matrix(1 0 0 -1 162.7002 231.75)" overflow="visible"/>
</svg>
