<?xml version="1.0" encoding="utf-8"?>
<!-- Generator: Adobe Illustrator 17.0.0, SVG Export Plug-In . SVG Version: 6.00 Build 0)  -->
<!DOCTYPE svg PUBLIC "-//W3C//DTD SVG 1.1//EN" "http://www.w3.org/Graphics/SVG/1.1/DTD/svg11.dtd">
<svg version="1.1" xmlns="http://www.w3.org/2000/svg" xmlns:xlink="http://www.w3.org/1999/xlink" x="0px" y="0px" width="800px"
	 height="600px" viewBox="0 0 800 600" enable-background="new 0 0 800 600" xml:space="preserve">
<g id="Layer_2">
	<rect fill="#FFFFFF" stroke="#000000" stroke-miterlimit="10" width="800" height="600"/>
</g>
<g id="Layer_1">
	<g>
		<path fill="#A26217" d="M428.025,343.071h-57.3l-11.3-12.25c-0.767-0.733-1.717-1.25-2.85-1.55l-11.35-2.5
			c-1.8-0.533-2.967-1.634-3.5-3.3l-2.45-13.05c-0.233-0.967-0.783-1.783-1.65-2.45l-12.05-7.3c-1.133-0.833-1.617-2-1.45-3.5
			l2.75-12.8c0.233-1,0.1-1.867-0.4-2.6l-9.1-13.3c-0.433-0.733-0.433-1.483,0-2.25l9.85-11.55c0.6-0.833,0.8-1.733,0.6-2.7
			l-0.05-0.1l-3.75-15.4c-0.2-1.067,0.083-1.817,0.85-2.25l12.45-8.8c0.533-0.4,0.883-0.933,1.05-1.6v-0.05l2.75-12.55
			c0.333-1.067,1.1-1.817,2.3-2.25l13.4-3.1c0.967-0.267,1.8-0.85,2.5-1.75l8.25-12.45c0.633-0.9,1.617-1.2,2.95-0.9h0.1l13.85,3.25
			c0.933,0.167,1.817-0.05,2.65-0.65h0.05l9.55-7.3c2.434-1.733,4.866-1.733,7.3,0l9.351,7.15c0.899,0.533,2.133,0.683,3.699,0.45
			l12.5-2.95c1.733-0.333,3.067,0.083,4,1.25l6.851,11.3c0.533,0.867,1.333,1.433,2.399,1.7l0.101,0.05l16.1,3.65
			c0.934,0.367,1.584,1.383,1.95,3.05l1.65,11.45c0.133,0.9,0.6,1.667,1.399,2.3l11.9,8.95c1,1.067,1.333,2.517,1,4.35
			c0,0.033,0,0.067,0,0.1l-2.601,12.25c-0.166,0.933,0,1.8,0.5,2.6l7.801,11.7c0.433,0.833,0.433,1.717,0,2.65l-7.7,12.6
			c-0.533,1.033-0.717,2.217-0.55,3.55l2.6,12.3c0.233,1.533-0.1,2.567-1,3.1l-11.75,7.1c-0.866,0.667-1.45,1.6-1.75,2.8l-2.3,13.35
			c-0.5,1.567-1.517,2.45-3.05,2.65h-0.101l-11.35,0.95c-1.834,0.2-3.434,0.883-4.8,2.05L428.025,343.071z M369.825,239.372
			c-2.1-1.367-4.35-2.15-6.75-2.35c-0.434-0.067-0.883-0.1-1.35-0.1c-4.167,0-7.767,1.5-10.8,4.5c-2.9,3.033-4.35,6.65-4.35,10.85
			c0,4.267,1.45,7.9,4.35,10.9c0.267,0.267,0.6,0.55,1,0.85c-0.067,0.033-0.117,0.1-0.15,0.2c-0.1,0.2-0.167,0.4-0.2,0.6
			c-0.067,0.133-0.1,0.267-0.1,0.4c-1.667,5.033-2.5,10.383-2.5,16.05c0,12.2,3.567,22.867,10.7,32c1.033,1.366,2.167,2.7,3.4,4
			c0.333,0.333,0.667,0.65,1,0.95c10.1,10.267,22.25,15.399,36.45,15.399c14.267,0,26.417-5.133,36.45-15.399
			c10.1-10.167,15.15-22.483,15.15-36.95c0-5.8-0.834-11.283-2.5-16.45c-0.034-0.2-0.101-0.4-0.2-0.6
			c-0.066-0.1-0.101-0.167-0.101-0.2c0.334-0.3,0.65-0.583,0.95-0.85c2.9-3,4.351-6.633,4.351-10.9c0-3.767-1.167-7.05-3.5-9.85
			c-0.233-0.333-0.517-0.667-0.851-1c-3.033-3-6.633-4.5-10.8-4.5c-3,0-5.7,0.833-8.1,2.5c-6.267-4.933-13.217-8.1-20.851-9.5
			c-3.2-0.633-6.533-0.95-10-0.95c-3.4,0-6.716,0.316-9.95,0.95C383.008,231.321,376.092,234.472,369.825,239.372z"/>
		<path fill="#F39C12" d="M351.925,264.021c1.7-5.267,4.283-10.15,7.75-14.65c1.033-1.367,2.167-2.684,3.4-3.95
			c0.333-0.4,0.667-0.767,1-1.1c0.667-0.6,1.35-1.233,2.05-1.9c0.867-0.8,1.75-1.566,2.65-2.3c0.034-0.033,0.15-0.117,0.35-0.25
			c0.133-0.1,0.3-0.217,0.5-0.35c0.067-0.067,0.133-0.117,0.2-0.15c6.267-4.9,13.183-8.05,20.75-9.45
			c3.233-0.633,6.55-0.95,9.95-0.95c3.467,0,6.8,0.316,10,0.95c7.634,1.4,14.584,4.567,20.851,9.5l0.05,0.1
			c0.2,0.133,0.399,0.25,0.6,0.35c0.967,0.8,1.934,1.65,2.9,2.55c0.7,0.667,1.383,1.3,2.05,1.9c5.767,5.833,9.884,12.4,12.35,19.7
			c0,0.033,0.034,0.1,0.101,0.2c0.1,0.2,0.166,0.4,0.2,0.6c1.666,5.167,2.5,10.65,2.5,16.45c0,14.467-5.051,26.783-15.15,36.95
			c-10.033,10.267-22.184,15.399-36.45,15.399c-14.2,0-26.35-5.133-36.45-15.399c-0.333-0.3-0.667-0.617-1-0.95
			c-1.233-1.3-2.367-2.634-3.4-4c-7.133-9.133-10.7-19.8-10.7-32c0-5.667,0.833-11.017,2.5-16.05c0-0.133,0.033-0.267,0.1-0.4
			c0.033-0.2,0.1-0.4,0.2-0.6C351.809,264.122,351.858,264.055,351.925,264.021z M407.925,282.872c-1.867-1.967-4.167-2.95-6.9-2.95
			c-2.667,0-4.966,0.983-6.9,2.95c-1.6,1.467-2.733,5.417-3.4,11.85c0.033,0.3,0.083,0.583,0.15,0.85c0.033,0.233,0.067,0.5,0.1,0.8
			c-2.033,0.467-3.667,1.367-4.9,2.7c-1.967,2.067-2.95,4.534-2.95,7.4c0,1.466,0.233,2.816,0.7,4.05c0.533,1.4,1.316,2.6,2.35,3.6
			c0.7,0.667,1.45,1.233,2.25,1.7l0.8,0.45c0.7,0.333,1.483,0.566,2.35,0.7c0.6,0.1,1.267,0.149,2,0.149c2.4,0,4.5-0.649,6.3-1.949
			c0.399-0.334,0.833-0.367,1.3-0.101c0.066,0.033,0.133,0.066,0.2,0.101c1.767,1.3,3.833,1.949,6.199,1.949
			c0.733,0,1.467-0.083,2.2-0.25c1.367-0.233,2.617-0.75,3.75-1.55l0.2-0.149c0.434-0.334,0.833-0.684,1.2-1.051
			c0.533-0.533,1.017-1.1,1.45-1.699c1.166-1.7,1.75-3.684,1.75-5.95c0-2.867-1.017-5.333-3.051-7.4
			c-1.066-1.2-2.466-2.083-4.199-2.65c0.066-0.267,0.116-0.55,0.149-0.85c0.066-0.267,0.117-0.55,0.15-0.85
			C410.609,288.288,409.525,284.338,407.925,282.872z M415.925,270.972c-9.267-4.1-19.233-4.117-29.9-0.05
			C396.692,266.855,406.659,266.872,415.925,270.972c-0.334,0.667-0.533,1.383-0.601,2.15c-0.1,0.533-0.149,1.05-0.149,1.55
			c0,2.8,0.983,5.2,2.95,7.2c1.333,1.367,2.833,2.283,4.5,2.75c0.866,0.2,1.75,0.3,2.649,0.3c2.834,0,5.25-1.017,7.25-3.05
			c1.934-2,2.9-4.4,2.9-7.2c0-1.8-0.384-3.433-1.15-4.9c-0.467-0.833-1.05-1.633-1.75-2.4c-2-2-4.416-3-7.25-3
			c-0.967,0-1.85,0.15-2.649,0.45c-0.367,0.067-0.717,0.184-1.051,0.35c-1.233,0.5-2.383,1.233-3.449,2.2
			c-0.634,0.767-1.167,1.517-1.601,2.25C416.291,270.055,416.091,270.505,415.925,270.972z M386.025,270.921
			c-0.533-1.267-1.3-2.45-2.3-3.55c-1.967-2-4.383-3-7.25-3c-0.833,0-1.65,0.117-2.45,0.35c-0.433,0.1-0.867,0.25-1.3,0.45
			c-1.233,0.5-2.35,1.233-3.35,2.2c-0.667,0.767-1.233,1.517-1.7,2.25c-0.833,1.533-1.25,3.217-1.25,5.05c0,2.8,0.983,5.2,2.95,7.2
			c1.4,1.4,2.95,2.316,4.65,2.75c0.8,0.2,1.617,0.3,2.45,0.3c2.867,0,5.283-1.017,7.25-3.05c1.967-2,2.95-4.4,2.95-7.2
			c0-0.5-0.034-1.017-0.1-1.55C386.475,272.355,386.292,271.622,386.025,270.921z M394.975,321.672c1.6,1.399,3.467,2.1,5.6,2.1
			c2.233,0,4.084-0.7,5.551-2.1c0.633-0.434,1.133-0.934,1.5-1.5c0.066-0.367-0.067-0.601-0.4-0.7h-0.1
			c-2.167-0.066-4.15-0.733-5.95-2c-0.434-0.2-0.816-0.2-1.15,0c-1.767,1.267-3.75,1.934-5.95,2c-0.333,0.1-0.483,0.333-0.45,0.7
			C393.958,320.738,394.408,321.238,394.975,321.672z"/>
		<path fill="#F7BD61" d="M449.325,264.021c-2.466-7.3-6.583-13.867-12.35-19.7c-0.667-0.6-1.35-1.233-2.05-1.9
			c-0.967-0.9-1.934-1.75-2.9-2.55c-0.2-0.1-0.399-0.217-0.6-0.35l-0.05-0.1c2.399-1.667,5.1-2.5,8.1-2.5
			c4.167,0,7.767,1.5,10.8,4.5c0.334,0.333,0.617,0.667,0.851,1c2.333,2.8,3.5,6.083,3.5,9.85c0,4.267-1.45,7.9-4.351,10.9
			C449.975,263.438,449.659,263.722,449.325,264.021z M369.825,239.372c-0.067,0.033-0.133,0.083-0.2,0.15
			c-0.2,0.133-0.367,0.25-0.5,0.35c-0.2,0.133-0.316,0.217-0.35,0.25c-0.9,0.733-1.783,1.5-2.65,2.3c-0.7,0.667-1.383,1.3-2.05,1.9
			c-0.333,0.333-0.667,0.7-1,1.1c-1.233,1.267-2.367,2.583-3.4,3.95c-3.467,4.5-6.05,9.383-7.75,14.65c-0.4-0.3-0.733-0.583-1-0.85
			c-2.9-3-4.35-6.633-4.35-10.9c0-4.2,1.45-7.817,4.35-10.85c3.033-3,6.633-4.5,10.8-4.5c0.467,0,0.917,0.033,1.35,0.1
			C365.475,237.222,367.725,238.005,369.825,239.372z M407.925,282.872c1.6,1.467,2.684,5.417,3.25,11.85
			c-0.033,0.3-0.084,0.583-0.15,0.85c-0.033,0.3-0.083,0.583-0.149,0.85c1.733,0.567,3.133,1.45,4.199,2.65
			c2.034,2.067,3.051,4.534,3.051,7.4c0,2.267-0.584,4.25-1.75,5.95c-0.434,0.6-0.917,1.166-1.45,1.699
			c-0.367,0.367-0.767,0.717-1.2,1.051l-0.2,0.149c-1.133,0.8-2.383,1.316-3.75,1.55c-0.733,0.167-1.467,0.25-2.2,0.25
			c-2.366,0-4.433-0.649-6.199-1.949c-0.067-0.034-0.134-0.067-0.2-0.101c-0.467-0.267-0.9-0.233-1.3,0.101
			c-1.8,1.3-3.9,1.949-6.3,1.949c-0.733,0-1.4-0.05-2-0.149c-0.867-0.134-1.65-0.367-2.35-0.7l-0.8-0.45
			c-0.8-0.467-1.55-1.033-2.25-1.7c-1.034-1-1.817-2.199-2.35-3.6c-0.467-1.233-0.7-2.583-0.7-4.05c0-2.867,0.983-5.333,2.95-7.4
			c1.233-1.333,2.867-2.233,4.9-2.7c-0.033-0.3-0.067-0.567-0.1-0.8c-0.066-0.267-0.117-0.55-0.15-0.85
			c0.667-6.434,1.8-10.383,3.4-11.85c1.934-1.967,4.233-2.95,6.9-2.95C403.758,279.921,406.058,280.905,407.925,282.872z
			 M390.975,296.372c0.833,4.433,2.033,7.367,3.6,8.8c1.7,1.467,3.7,2.2,6,2.2c0.101,0,0.217,0,0.351,0
			c2.467-0.1,4.566-0.833,6.3-2.2c1.5-1.233,2.717-4.15,3.65-8.75c-0.034-0.933-0.483-1.566-1.351-1.9c-5.866-0.8-11.6-0.8-17.2,0
			C391.592,294.855,391.142,295.472,390.975,296.372z M394.975,321.672c-0.567-0.434-1.017-0.934-1.35-1.5
			c-0.033-0.367,0.117-0.601,0.45-0.7c2.2-0.066,4.183-0.733,5.95-2c0.334-0.2,0.717-0.2,1.15,0c1.8,1.267,3.783,1.934,5.95,2h0.1
			c0.333,0.1,0.467,0.333,0.4,0.7c-0.367,0.566-0.867,1.066-1.5,1.5c-1.467,1.399-3.317,2.1-5.551,2.1
			C398.442,323.771,396.575,323.071,394.975,321.672z"/>
		<path fill="#48230A" d="M415.925,270.972c0.166-0.467,0.366-0.917,0.6-1.35c0.434-0.733,0.967-1.483,1.601-2.25
			c1.066-0.967,2.216-1.7,3.449-2.2c0.334-0.167,0.684-0.283,1.051-0.35c0.8-0.3,1.683-0.45,2.649-0.45c2.834,0,5.25,1,7.25,3
			c0.7,0.767,1.283,1.566,1.75,2.4c0.767,1.467,1.15,3.1,1.15,4.9c0,2.8-0.967,5.2-2.9,7.2c-2,2.033-4.416,3.05-7.25,3.05
			c-0.899,0-1.783-0.1-2.649-0.3c-1.667-0.467-3.167-1.383-4.5-2.75c-1.967-2-2.95-4.4-2.95-7.2c0-0.5,0.05-1.017,0.149-1.55
			C415.392,272.355,415.591,271.638,415.925,270.972z M386.025,270.921c0.267,0.7,0.45,1.434,0.55,2.2
			c0.066,0.533,0.1,1.05,0.1,1.55c0,2.8-0.983,5.2-2.95,7.2c-1.967,2.033-4.383,3.05-7.25,3.05c-0.833,0-1.65-0.1-2.45-0.3
			c-1.7-0.434-3.25-1.35-4.65-2.75c-1.967-2-2.95-4.4-2.95-7.2c0-1.833,0.417-3.517,1.25-5.05c0.466-0.733,1.033-1.483,1.7-2.25
			c1-0.967,2.117-1.7,3.35-2.2c0.433-0.2,0.867-0.35,1.3-0.45c0.8-0.233,1.617-0.35,2.45-0.35c2.867,0,5.283,1,7.25,3
			C384.725,268.472,385.492,269.655,386.025,270.921z M390.975,296.372c0.167-0.9,0.617-1.517,1.35-1.85c5.6-0.8,11.333-0.8,17.2,0
			c0.867,0.333,1.316,0.967,1.351,1.9c-0.934,4.6-2.15,7.517-3.65,8.75c-1.733,1.367-3.833,2.1-6.3,2.2c-0.134,0-0.25,0-0.351,0
			c-2.3,0-4.3-0.733-6-2.2C393.008,303.738,391.809,300.805,390.975,296.372z M382.475,380.422l33.1-0.5
			c-7.566,5.733-13.066,8.583-16.5,8.55C395.642,388.371,390.108,385.688,382.475,380.422z"/>
		<path fill="#BDC3C7" d="M427.525,348.672l-56.85,0.399l-0.95-3.2l58.85-0.399L427.525,348.672z M427.675,351.722l-2.65,4.85
			l-52,0.601l-2.65-4.9l57.15-0.55h0.15V351.722z M423.425,371.771l-47.5,0.55l-1.85-3.899l50.75-0.5L423.425,371.771z
			 M372.225,360.871l53.65-0.75l-1.551,4.051l-49.55,0.6L372.225,360.871z"/>
		<path fill="#95A5A6" d="M428.575,345.472l-58.85,0.399l1-2.8h57.3L428.575,345.472z M370.675,349.071l56.85-0.399v3.05
			l-57.15,0.55L370.675,349.071z M374.775,364.771l49.55-0.6l0.5,3.75l-50.75,0.5L374.775,364.771z M373.025,357.172l52-0.601
			l0.851,3.55l-53.65,0.75L373.025,357.172z M382.475,380.422l-6.55-8.101l47.5-0.55l-7.851,8.15L382.475,380.422z"/>
		<polygon fill="#9FA2A0" points="427.525,348.672 427.675,351.722 427.525,351.722 		"/>
		<path fill="none" stroke="#48230A" stroke-width="2" stroke-linecap="round" stroke-linejoin="round" stroke-miterlimit="3" d="
			M415.925,270.972c-9.267-4.1-19.233-4.117-29.9-0.05"/>
	</g>
	<text transform="matrix(1 0 0 1 334.6505 422.2118)" fill="#010101" font-family="'nevis-Bold'" font-size="33.4616">solarcub</text>
</g>
</svg>
