<?xml version="1.0" encoding="utf-8"?>
<!-- Generator: Adobe Illustrator 17.0.0, SVG Export Plug-In . SVG Version: 6.00 Build 0)  -->
<!DOCTYPE svg PUBLIC "-//W3C//DTD SVG 1.1//EN" "http://www.w3.org/Graphics/SVG/1.1/DTD/svg11.dtd">
<svg version="1.1" xmlns="http://www.w3.org/2000/svg" xmlns:xlink="http://www.w3.org/1999/xlink" x="0px" y="0px" width="600px"
	 height="600px" viewBox="0 0 600 600" enable-background="new 0 0 600 600" xml:space="preserve">
<g id="Layer_2">
	<rect fill="#FFFFFF" width="600" height="600"/>
</g>
<g id="Layer_1">
	<g>
		<path fill="#FFFFFF" d="M220.25,288.503h4.958c0.603,0,1.205,0.049,1.808,0.146c11.83,1.604,21.847,6.916,30.052,15.937
			c2.712,2.907,5.224,6.265,7.536,10.075c0.098,0.097,0.146,0.195,0.146,0.292c3.5,4.812,7.359,8.919,11.577,12.321
			c2.295,1.817,4.696,3.425,7.204,4.825c2.614,1.294,5.374,2.295,8.281,3.004c4.803,1.303,8.759,1.453,11.869,0.452
			c3.208-1.108,5.162-3.212,5.862-6.314l0.159-0.306c0.399-1.4,0.496-2.751,0.292-4.054c-0.301-1.302-1.054-2.654-2.26-4.054
			l-5.569-4.825l-23.141-14.129c-1.108-0.691-2.109-1.44-3.004-2.246c-2.41-2.1-4.515-4.258-6.314-6.473
			c-2.313-3.208-3.815-6.761-4.506-10.66c-0.709-3.917-0.363-8.476,1.037-13.677v-0.319c1.303-4.705,3.358-8.759,6.167-12.162
			c2.711-3.412,6.074-6.07,10.088-7.975c0.496-0.204,1.09-0.452,1.781-0.744c3.518-1.409,7.328-2.264,11.431-2.565
			c4.82-0.292,9.933,0.31,15.339,1.808c1.001,0.204,1.954,0.456,2.858,0.758c6.513,1.994,12.326,4.75,17.439,8.267
			c4.705,3.305,8.865,7.111,12.481,11.418c-0.399-0.806,1.905,2.353,6.912,9.477c5.007,7.018,12.375,10.926,22.104,11.723h6.912
			v22.091h-7.364c-16.437,0.204-30.668-8.462-42.693-25.998c-3.713-4.51-7.576-8.267-11.591-11.271
			c-4.005-3.004-8.21-5.108-12.614-6.314c-4.51-1.205-8.17-1.254-10.979-0.146c-2.711,1.196-4.413,3.048-5.104,5.556v0.439
			c-0.408,1.71-0.51,3.265-0.306,4.665c0.301,1.4,1.205,2.805,2.711,4.213l6.154,4.812l10.221,6.008
			c4.112,2.41,7.771,4.767,10.979,7.071c0.594,0.505,1.245,1.006,1.954,1.502c3.606,2.809,6.562,5.818,8.866,9.025
			c2.109,3.199,3.465,6.65,4.067,10.354c0.594,3.713,0.239,7.824-1.063,12.334v0.306c-1.4,5.219-3.602,9.579-6.606,13.079
			c-2.907,3.509-6.416,6.163-10.527,7.961c-4.103,1.914-8.666,2.969-13.69,3.163c-5.104,0.204-10.514-0.496-16.229-2.1
			c-7.913-2.003-15.33-5.463-22.25-10.381c-3.403-2.304-6.606-4.958-9.61-7.962c-2.712-2.906-5.166-6.012-7.364-9.317
			c-0.408-0.408-0.762-0.859-1.063-1.356c-5.308-8.719-12.37-13.934-21.187-15.645h-4.214V288.503z"/>
		
			<linearGradient id="SVGID_1_" gradientUnits="userSpaceOnUse" x1="340.4176" y1="316.771" x2="149.5024" y2="316.771" gradientTransform="matrix(1 0 0 -1 4 595)">
			<stop  offset="0" style="stop-color:#FF0042"/>
			<stop  offset="1" style="stop-color:#AE0142"/>
		</linearGradient>
		<path fill="url(#SVGID_1_)" d="M379.75,288.503h-6.912c-9.73-0.798-17.097-4.705-22.104-11.723
			c-5.006-7.124-7.31-10.283-6.912-9.477c-3.615-4.306-7.776-8.112-12.481-11.418c-5.113-3.518-10.926-6.274-17.439-8.267
			c-0.904-0.301-1.856-0.554-2.858-0.758c-5.405-1.497-10.518-2.1-15.339-1.808c-4.103,0.301-7.913,1.156-11.431,2.565
			c-0.691,0.292-1.285,0.54-1.781,0.744c-4.014,1.905-7.377,4.563-10.088,7.975c-2.809,3.403-4.865,7.457-6.167,12.162v0.319
			c-1.4,5.201-1.746,9.76-1.037,13.677c0.691,3.899,2.193,7.452,4.506,10.66c1.799,2.215,3.904,4.373,6.314,6.473
			c0.895,0.807,1.896,1.555,3.004,2.246l23.141,14.129l5.569,4.825c1.205,1.4,1.958,2.752,2.26,4.054
			c0.204,1.303,0.106,2.654-0.292,4.054l-0.159,0.306c-0.7,3.101-2.654,5.206-5.862,6.314c-3.11,1.001-7.067,0.851-11.869-0.452
			c-2.907-0.709-5.667-1.71-8.281-3.004c-2.508-1.4-4.909-3.008-7.204-4.825c-4.218-3.403-8.077-7.51-11.577-12.321
			c0-0.097-0.049-0.195-0.146-0.292c-2.313-3.81-4.825-7.169-7.536-10.075c-8.205-9.021-18.223-14.333-30.052-15.937
			c-0.603-0.098-1.205-0.146-1.808-0.146h-4.958v-38.187c0-20.044,10.022-30.066,30.066-30.066h99.355
			c20.053,0,30.079,10.022,30.079,30.066V288.503z"/>
		
			<linearGradient id="SVGID_2_" gradientUnits="userSpaceOnUse" x1="379.8802" y1="272.3882" x2="214.073" y2="271.5576" gradientTransform="matrix(1 0 0 -1 4 595)">
			<stop  offset="0" style="stop-color:#01D3C2"/>
			<stop  offset="1" style="stop-color:#0092A8"/>
		</linearGradient>
		<path fill="url(#SVGID_2_)" d="M379.75,310.593v39.091c0,20.044-10.026,30.066-30.079,30.066h-99.355
			c-20.044,0-30.066-10.022-30.066-30.066v-39.091h4.213c8.817,1.71,15.879,6.925,21.187,15.645
			c0.301,0.496,0.656,0.948,1.063,1.356c2.198,3.305,4.652,6.411,7.364,9.317c3.004,3.004,6.207,5.658,9.61,7.962
			c6.92,4.918,14.337,8.378,22.25,10.381c5.715,1.604,11.125,2.304,16.229,2.1c5.024-0.195,9.588-1.249,13.69-3.163
			c4.111-1.799,7.62-4.453,10.527-7.961c3.004-3.5,5.206-7.86,6.606-13.079v-0.306c1.303-4.51,1.657-8.622,1.063-12.334
			c-0.603-3.704-1.958-7.155-4.067-10.354c-2.304-3.208-5.259-6.216-8.866-9.025c-0.709-0.496-1.36-0.997-1.954-1.502
			c-3.208-2.304-6.867-4.661-10.979-7.071l-10.221-6.008l-6.154-4.812c-1.506-1.409-2.41-2.813-2.712-4.213
			c-0.204-1.4-0.102-2.955,0.306-4.665v-0.439c0.691-2.508,2.392-4.36,5.104-5.556c2.809-1.108,6.469-1.059,10.979,0.146
			c4.404,1.205,8.608,3.31,12.614,6.314c4.014,3.004,7.878,6.761,11.591,11.271c12.024,17.536,26.256,26.202,42.693,25.999
			L379.75,310.593L379.75,310.593z"/>
	</g>
</g>
</svg>
