<?xml version="1.0" encoding="utf-8"?>
<!-- Generator: Adobe Illustrator 17.0.0, SVG Export Plug-In . SVG Version: 6.00 Build 0)  -->
<!DOCTYPE svg PUBLIC "-//W3C//DTD SVG 1.1//EN" "http://www.w3.org/Graphics/SVG/1.1/DTD/svg11.dtd">
<svg version="1.1" xmlns="http://www.w3.org/2000/svg" xmlns:xlink="http://www.w3.org/1999/xlink" x="0px" y="0px" width="800px"
	 height="600px" viewBox="0 0 800 600" enable-background="new 0 0 800 600" xml:space="preserve">
<symbol  id="final_x5F_scissors_x5F_ish" viewBox="-128.846 -126.246 257.692 252.491">
	<g id="Layer_3_3_">
		<path d="M-0.025,24.545l-17.1-15.9c-2.934-6.467-6.5-12.15-10.7-17.05c4.2,4.9,7.767,10.583,10.7,17.05L-0.025,24.545l106.6,99.35
			h1c11.6-16.167,12.9-32.934,3.9-50.3l-83.7-82l-17-16.7c-3.8-0.3-7.4-0.717-10.8-1.25c-7.167-1.2-13.433-2.967-18.8-5.3
			c-7.9-3.433-12.867-9.6-14.9-18.5c1.3-20.066-3.7-37.85-15-53.35c-19.033-23.6-41.2-27.3-66.5-11.1
			c-14.5,17.333-15.717,36.083-3.65,56.25c16.133,20.466,37.883,31.1,65.25,31.9c10.267,3.9,18.867,9.916,25.8,18.05l-83.7,82
			c-8.966,17.367-7.666,34.133,3.9,50.3c0.133,0.166,0.267,0.366,0.4,0.6L-0.025,24.545z M0.125-16.305c3.667,0,6.8,1.3,9.4,3.9
			s3.9,5.733,3.9,9.4c0,3.7-1.3,6.85-3.9,9.45c-2.6,2.567-5.733,3.85-9.4,3.85c-3.7,0-6.833-1.283-9.4-3.85
			c-2.6-2.6-3.9-5.75-3.9-9.45c0-3.667,1.3-6.8,3.9-9.4C-6.708-15.005-3.575-16.305,0.125-16.305z M27.775-8.405
			c6.933-8.133,15.55-14.15,25.85-18.05c27.333-0.8,49.083-11.434,65.25-31.9c12.066-20.167,10.85-38.917-3.65-56.25
			c-25.3-16.2-47.466-12.5-66.5,11.1c-11.333,15.5-16.333,33.284-15,53.35c-2.033,8.9-7.017,15.067-14.95,18.5
			c-5.367,2.333-11.633,4.1-18.8,5.3c3.4,0.533,7,0.95,10.8,1.25L27.775-8.405z M108.575-73.155
			c-3.033,8.333-8.967,15.117-17.8,20.35c-8.867,5.233-17.517,5.817-25.95,1.75c-8.467-4.033-12.517-10.9-12.15-20.6
			c0.5-12,4.767-21.517,12.8-28.55c7.767-6.8,15.8-9.483,24.1-8.05c7.434,1.133,13.533,5.317,18.3,12.55
			C111.341-88.971,111.575-81.455,108.575-73.155z M-64.825-51.055c-8.467,4.067-17.117,3.483-25.95-1.75s-14.767-12.017-17.8-20.35
			c-3.033-8.3-2.8-15.816,0.7-22.55c4.733-7.233,10.833-11.417,18.3-12.55c8.267-1.433,16.3,1.25,24.1,8.05
			c8,7.033,12.25,16.55,12.75,28.55C-52.325-61.955-56.358-55.088-64.825-51.055z"/>
		<path fill="none" stroke="#000000" stroke-width="3.5" stroke-linecap="round" stroke-linejoin="round" stroke-miterlimit="3" d="
			M27.775-8.405l83.7,82c9,17.367,7.7,34.133-3.9,50.3h-1l-106.6-99.35l-17.1-15.9c-2.934-6.467-6.5-12.15-10.7-17.05
			c-6.933-8.133-15.533-14.15-25.8-18.05c-27.367-0.8-49.117-11.434-65.25-31.9c-12.067-20.167-10.85-38.917,3.65-56.25
			c25.3-16.2,47.467-12.5,66.5,11.1c11.3,15.5,16.3,33.284,15,53.35c2.033,8.9,7,15.067,14.9,18.5c5.367,2.333,11.633,4.1,18.8,5.3
			c3.4,0.533,7,0.95,10.8,1.25L27.775-8.405z M108.575-73.155c3-8.3,2.767-15.816-0.7-22.55c-4.767-7.233-10.867-11.417-18.3-12.55
			c-8.3-1.433-16.333,1.25-24.1,8.05c-8.033,7.033-12.3,16.55-12.8,28.55c-0.367,9.7,3.683,16.567,12.15,20.6
			c8.434,4.067,17.083,3.483,25.95-1.75C99.608-58.038,105.542-64.822,108.575-73.155z M-0.025-26.355
			c7.167-1.2,13.434-2.967,18.8-5.3c7.933-3.433,12.917-9.6,14.95-18.5c-1.333-20.066,3.667-37.85,15-53.35
			c19.034-23.6,41.2-27.3,66.5-11.1c14.5,17.333,15.717,36.083,3.65,56.25c-16.167,20.466-37.917,31.1-65.25,31.9
			c-10.3,3.9-18.917,9.916-25.85,18.05 M0.125-16.305c-3.7,0-6.833,1.3-9.4,3.9c-2.6,2.6-3.9,5.733-3.9,9.4c0,3.7,1.3,6.85,3.9,9.45
			c2.567,2.567,5.7,3.85,9.4,3.85c3.667,0,6.8-1.283,9.4-3.85c2.6-2.6,3.9-5.75,3.9-9.45c0-3.667-1.3-6.8-3.9-9.4
			S3.792-16.305,0.125-16.305z M-0.025,24.545l-107.2,99.95c-0.133-0.233-0.267-0.434-0.4-0.6
			c-11.567-16.167-12.867-32.934-3.9-50.3l83.7-82 M-64.825-51.055c-8.467,4.067-17.117,3.483-25.95-1.75s-14.767-12.017-17.8-20.35
			c-3.033-8.3-2.8-15.816,0.7-22.55c4.733-7.233,10.833-11.417,18.3-12.55c8.267-1.433,16.3,1.25,24.1,8.05
			c8,7.033,12.25,16.55,12.75,28.55C-52.325-61.955-56.358-55.088-64.825-51.055z"/>
	</g>
</symbol>
<symbol  id="logololo" viewBox="-291.075 -291.1 582.15 582.2">
	<g id="Layer_3_1_">
		<path d="M247.725-0.1c0,68.467-24.183,126.867-72.55,175.2c-48.333,48.334-106.717,72.5-175.15,72.5
			c-68.4,0-126.767-24.166-175.1-72.5c-48.367-48.333-72.55-106.733-72.55-175.2c0-68.4,24.183-126.767,72.55-175.1
			c48.333-48.334,106.7-72.5,175.1-72.5c68.433,0,126.816,24.167,175.15,72.5C223.542-126.867,247.725-68.5,247.725-0.1z
			 M204.625,204.6c56.466-56.5,84.7-124.7,84.7-204.6c0-79.933-28.233-148.15-84.7-204.65c-56.5-56.467-124.7-84.7-204.6-84.7
			c-79.934,0-148.15,28.233-204.65,84.7c-56.467,56.5-84.7,124.717-84.7,204.65c0,79.9,28.233,148.1,84.7,204.6
			c24.847,24.847,51.964,44.23,81.35,58.15c37.419,17.733,78.519,26.6,123.3,26.6c44.762,0,85.853-8.867,123.275-26.6
			C152.669,248.83,179.777,229.447,204.625,204.6z"/>
		<path fill="none" stroke="#000000" stroke-width="3.5" stroke-linecap="round" stroke-linejoin="round" stroke-miterlimit="3" d="
			M247.725-0.1c0-68.4-24.183-126.767-72.55-175.1c-48.333-48.334-106.717-72.5-175.15-72.5c-68.4,0-126.767,24.167-175.1,72.5
			c-48.367,48.333-72.55,106.7-72.55,175.1c0,68.467,24.183,126.867,72.55,175.2c48.333,48.334,106.7,72.5,175.1,72.5
			c68.433,0,126.816-24.166,175.15-72.5C223.542,126.767,247.725,68.367,247.725-0.1z M204.625,204.6
			c56.466-56.5,84.7-124.7,84.7-204.6c0-79.933-28.233-148.15-84.7-204.65c-56.5-56.467-124.7-84.7-204.6-84.7
			c-79.934,0-148.15,28.233-204.65,84.7c-56.467,56.5-84.7,124.717-84.7,204.65c0,79.9,28.233,148.1,84.7,204.6
			c24.847,24.847,51.964,44.23,81.35,58.15c37.419,17.733,78.519,26.6,123.3,26.6c44.762,0,85.853-8.867,123.275-26.6
			C152.669,248.83,179.777,229.447,204.625,204.6z"/>
	</g>
	
		<use xlink:href="#final_x5F_scissors_x5F_ish"  width="257.692" height="252.491" x="-128.846" y="-126.246" transform="matrix(1.1717 0 0 1.1717 -0.2785 2.1885)" overflow="visible"/>
</symbol>
<g id="Layer_2">
	<rect fill="#FFFFFF" stroke="#000000" stroke-miterlimit="10" width="800" height="600"/>
</g>
<g id="Layer_1">
	
		<use xlink:href="#logololo"  width="582.15" height="582.2" x="-291.075" y="-291.1" transform="matrix(0.2743 0 0 -0.2743 406.4492 261.5186)" overflow="visible"/>
	<text transform="matrix(1 0 0 1 284.4667 405.8052)" font-family="'Jaapokkisubtract-Regular'" font-size="42.7665">TRIMFORCE</text>
</g>
</svg>
