<?xml version="1.0" encoding="utf-8"?>
<!-- Generator: Adobe Illustrator 17.0.0, SVG Export Plug-In . SVG Version: 6.00 Build 0)  -->
<!DOCTYPE svg PUBLIC "-//W3C//DTD SVG 1.1//EN" "http://www.w3.org/Graphics/SVG/1.1/DTD/svg11.dtd">
<svg version="1.1" id="Layer_1" xmlns="http://www.w3.org/2000/svg" xmlns:xlink="http://www.w3.org/1999/xlink" x="0px" y="0px"
	 width="800px" height="600px" viewBox="0 0 800 600" enable-background="new 0 0 800 600" xml:space="preserve">
<g id="bg">
	<rect fill="#A9EA20" width="800" height="600"/>
</g>
<g id="text">
	<text transform="matrix(1 0 0 1 285.6001 413.6992)" font-family="'GothamRounded-Medium'" font-size="49">Wombat.</text>
</g>
<g id="wombat">
	<g>
		<path d="M393.05,194c0.034-0.033,0.067-0.05,0.1-0.05c29-4.667,54.984,3.133,77.95,23.4c0.034,0.033,0.084,0.083,0.15,0.15
			c26.434,26.833,32.783,58.567,19.05,95.2c-6.633,17.767-16.633,30.533-30,38.3c-0.033,0.033-0.066,0.066-0.1,0.1
			c-10.733,7-23.334,11.084-37.8,12.25c-0.067,0-0.117,0-0.15,0c-8.434,0.233-13.85-2.6-16.25-8.5
			c-0.033-0.066-0.066-0.116-0.1-0.149c-1.267-3.367-1.301-6.717-0.101-10.05c-5.233-1.801-8.517-5.067-9.85-9.801
			c-1.133-3.399-1.1-7.649,0.1-12.75c-0.2,0.067-0.367,0.15-0.5,0.25c-0.033,0-0.066,0.017-0.1,0.051
			c-7.467,3.866-14.75,9.55-21.85,17.05c-0.1,0.066-0.2,0.133-0.3,0.2c-4.833,4-8.833,5.816-12,5.449c-3.9,0-6.65-2.583-8.25-7.75
			c-0.033-0.066-0.05-0.133-0.05-0.199c-0.667-2.733-0.967-5.5-0.9-8.301c-5.967,0.467-10.283-2.833-12.95-9.899
			c-0.033-0.066-0.066-0.134-0.1-0.2c-1.5-4.8-1.783-11.6-0.85-20.4c-10.934,8.2-19.833,8.983-26.7,2.35
			c-5.8-5.267-8.75-10.684-8.85-16.25c-0.033-0.267-0.017-0.517,0.05-0.75c1.4-6.434,2.8-15.083,4.2-25.95
			c1.434-11.267,3.717-20.2,6.85-26.8c0.033-0.1,0.083-0.2,0.15-0.3c0-0.033,0.017-0.05,0.05-0.05c1.867-4,3.767-7.25,5.7-9.75
			l0.95-4.75c1.566-8.667,6.117-14.233,13.65-16.7h-0.05c3.5-1.2,6.4-0.816,8.7,1.15c1.6,1.167,2.883,3.15,3.85,5.95
			c0.633-0.1,1.3-0.167,2-0.2c2.667-2.9,6.1-4.883,10.3-5.95H359c3.3-0.867,6.133-0.5,8.5,1.1
			C374.8,198.35,383.317,195.867,393.05,194z M357.8,311.65v0.1c2.133-4.533,3.35-9.05,3.65-13.55c-6.034-3.4-11.6-5-16.7-4.8
			c-1.6,10.534-1.633,18.417-0.1,23.65c1.833,4.667,4.883,6.517,9.15,5.55C354.533,318.967,355.867,315.316,357.8,311.65z
			 M404.35,314.85v0.051c-2.566,4.8-3.666,9.716-3.3,14.75c0,1.267,0.15,2.433,0.45,3.5c1.134,3.333,3.866,5.5,8.2,6.5
			c3.233-4.167,7.066-7.351,11.5-9.551c0.033-0.033,0.066-0.05,0.1-0.05c1.967-1.133,3.65-2.434,5.05-3.899
			c-3.833-7.367-9.449-12.934-16.85-16.7L404.35,314.85z M334.5,251.75c0.133-0.067,0.283-0.083,0.45-0.05
			c4,0.133,6.283,1.85,6.85,5.15c0,0.066,0.017,0.15,0.05,0.25c0.1,2.367-0.517,4.183-1.85,5.45c-1.167,1.267-3,2-5.5,2.2
			c-0.1,0-0.2,0-0.3,0c-2.3-0.233-3.95-0.85-4.95-1.85c-1.3-1.1-1.783-2.65-1.45-4.65C328.367,254.683,330.6,252.517,334.5,251.75z
			 M337.3,259.85c0.5-0.6,0.733-1.4,0.7-2.4c-0.4-1.167-1.417-1.8-3.05-1.9c-1.9,0.467-3.017,1.583-3.35,3.35
			c-0.1,0.467-0.017,0.867,0.25,1.2c0.533,0.4,1.383,0.65,2.55,0.75C335.667,260.75,336.633,260.417,337.3,259.85z M339.25,205.1
			c-0.867-0.567-1.917-0.617-3.15-0.15c-4.8,1.633-7.917,5.066-9.35,10.3c4.233-3.3,9.05-5.567,14.45-6.8
			C340.667,206.95,340.017,205.833,339.25,205.1z M420.3,291c0.167,0.5,0.134,1-0.1,1.5c-2.533,5.233-5.3,9.866-8.3,13.9
			c7.3,3.833,12.966,9.3,17,16.399c1.6-2.666,2.6-5.75,3-9.25c0.033-0.533,0.267-0.967,0.699-1.3c0.434-0.333,0.917-0.467,1.45-0.4
			c0.5,0.067,0.917,0.301,1.25,0.7c0.334,0.434,0.483,0.917,0.45,1.45c-0.634,5.434-2.483,9.983-5.55,13.65
			c-0.033,0-0.05,0.017-0.05,0.05c-0.067,0.066-0.117,0.116-0.15,0.149l-0.05,0.051c-1.834,2.133-4.117,3.983-6.851,5.55
			c-0.033,0-0.066,0.017-0.1,0.05c-3.967,1.934-7.366,4.767-10.2,8.5v0.05c-2,2.533-2.6,5.584-1.8,9.15
			c0.066,0.399,0.184,0.816,0.35,1.25c0,0.033,0.017,0.1,0.051,0.2c1.733,3.333,5.25,4.949,10.55,4.85
			c13.467-1.066,25.184-4.866,35.149-11.4c0.034-0.033,0.084-0.05,0.15-0.05c12.233-7.2,21.417-19,27.55-35.399
			c12.834-34.2,6.983-63.833-17.55-88.9c-21.566-19-45.95-26.333-73.15-22h0.05c-8.9,1.7-16.717,3.95-23.45,6.75
			c1.233,2.2,2.2,5.117,2.9,8.75c0.1,0.5,0,0.983-0.3,1.45c-0.3,0.433-0.716,0.7-1.25,0.8c-0.5,0.1-0.966,0-1.4-0.3
			c-0.467-0.3-0.75-0.717-0.85-1.25c-0.667-3.534-1.617-6.25-2.85-8.15c-1.633-2.367-4.3-3.1-8-2.2c-3.733,0.9-6.567,3.05-8.5,6.45
			c-1.5,2.434-2.55,5.383-3.15,8.85c-0.1,0.5-0.367,0.917-0.8,1.25c-0.433,0.3-0.917,0.4-1.45,0.3c-0.5-0.1-0.9-0.367-1.2-0.8
			c-0.333-0.433-0.45-0.9-0.35-1.4c0.5-2.9,1.283-5.483,2.35-7.75c-0.9-0.467-1.917-0.617-3.05-0.45h-0.05
			c-5.3,1.1-9.983,3.3-14.05,6.6v0.05c-3.333,2.833-6.534,7.716-9.6,14.65c0,0.033-0.017,0.066-0.05,0.1
			c-0.133,0.3-0.267,0.617-0.4,0.95c-2.667,6.1-4.65,14.133-5.95,24.1c-1.067,8.333-2.133,15.4-3.2,21.2
			c2.5-0.534,5.067,0.316,7.7,2.55c0.1,0.067,0.183,0.15,0.25,0.25c3.533,4.333,3.267,8.467-0.8,12.4
			c-0.4,0.367-0.867,0.55-1.4,0.55c-0.533-0.034-0.967-0.233-1.3-0.6c-0.4-0.4-0.583-0.867-0.55-1.4c0-0.534,0.2-0.983,0.6-1.35
			c2.333-2.233,2.517-4.583,0.55-7.05c-2.066-1.7-4.066-1.95-6-0.75c-0.033,0.067-0.05,0.133-0.05,0.2
			c0.367,4.033,2.683,7.983,6.95,11.85c4.7,3.9,10.867,3.183,18.5-2.15c0.466-0.333,1.017-0.684,1.65-1.05c2.633-1.7,5-3.5,7.1-5.4
			c2.1-1.933,3.55-3.317,4.35-4.15c0.367-0.4,0.817-0.6,1.35-0.6c0.5-0.033,0.95,0.133,1.35,0.5c0.4,0.333,0.617,0.783,0.65,1.35
			c0,0.5-0.167,0.95-0.5,1.35c-1.1,1.167-2.15,2.283-3.15,3.35c4.567,0.167,9.45,1.583,14.65,4.25
			c-0.167-2.367-0.583-4.733-1.25-7.1c-0.133-0.534-0.066-1.017,0.2-1.45c0.233-0.5,0.617-0.817,1.15-0.95
			c0.5-0.133,0.983-0.066,1.45,0.2c0.466,0.233,0.767,0.617,0.9,1.15c1.066,3.733,1.566,7.5,1.5,11.3c0,0.133,0,0.267,0,0.4
			c-0.167,5.3-1.533,10.65-4.1,16.05c-0.033,0-0.05,0.017-0.05,0.05c-1.733,3.333-2.934,6.633-3.6,9.899v0.051
			c-0.667,4.3-0.3,8.416,1.1,12.35c0.667,2.066,1.65,3.25,2.95,3.55c1.934-0.066,4.5-1.366,7.7-3.899c7.6-8,15.4-14.067,23.4-18.2
			l-0.05,0.05c0.533-0.3,1.066-0.616,1.6-0.95l7.5-4.35c1.934-1.8,3.8-3.8,5.601-6c0-0.033,0.017-0.066,0.05-0.101
			c3.399-4.233,6.5-9.233,9.3-15c0.2-0.5,0.55-0.833,1.05-1c0.5-0.2,1-0.167,1.5,0.1C419.767,290.15,420.1,290.5,420.3,291z"/>
		<path fill="#FFFFFF" d="M420.3,291c-0.2-0.5-0.533-0.85-1-1.05c-0.5-0.267-1-0.3-1.5-0.1c-0.5,0.167-0.85,0.5-1.05,1
			c-2.8,5.767-5.9,10.766-9.3,15c-0.033,0.034-0.05,0.067-0.05,0.101c-1.801,2.2-3.667,4.2-5.601,6l-7.5,4.35
			c-0.533,0.334-1.066,0.65-1.6,0.95l0.05-0.05c-8,4.133-15.8,10.2-23.4,18.2c-3.2,2.533-5.767,3.833-7.7,3.899
			c-1.3-0.3-2.283-1.483-2.95-3.55c-1.4-3.934-1.767-8.05-1.1-12.35v-0.051c0.667-3.267,1.867-6.566,3.6-9.899
			c0-0.033,0.017-0.05,0.05-0.05c2.567-5.4,3.933-10.75,4.1-16.05c0-0.133,0-0.267,0-0.4c0.066-3.8-0.434-7.567-1.5-11.3
			c-0.133-0.533-0.434-0.917-0.9-1.15c-0.467-0.267-0.95-0.333-1.45-0.2c-0.533,0.133-0.917,0.45-1.15,0.95
			c-0.267,0.433-0.333,0.917-0.2,1.45c0.667,2.367,1.083,4.733,1.25,7.1c-5.2-2.667-10.083-4.083-14.65-4.25
			c1-1.066,2.05-2.183,3.15-3.35c0.333-0.4,0.5-0.85,0.5-1.35c-0.033-0.567-0.25-1.017-0.65-1.35c-0.4-0.367-0.85-0.533-1.35-0.5
			c-0.533,0-0.983,0.2-1.35,0.6c-0.8,0.833-2.25,2.217-4.35,4.15c-2.1,1.9-4.467,3.7-7.1,5.4c-0.633,0.367-1.184,0.717-1.65,1.05
			c-7.633,5.333-13.8,6.05-18.5,2.15c-4.267-3.867-6.583-7.817-6.95-11.85c0-0.067,0.017-0.133,0.05-0.2
			c1.934-1.2,3.934-0.95,6,0.75c1.967,2.467,1.784,4.817-0.55,7.05c-0.4,0.367-0.6,0.816-0.6,1.35c-0.033,0.533,0.15,1,0.55,1.4
			c0.333,0.367,0.767,0.566,1.3,0.6c0.533,0,1-0.184,1.4-0.55c4.067-3.933,4.333-8.066,0.8-12.4c-0.067-0.1-0.15-0.183-0.25-0.25
			c-2.633-2.233-5.2-3.083-7.7-2.55c1.067-5.8,2.133-12.867,3.2-21.2c1.3-9.967,3.283-18,5.95-24.1c0.133-0.333,0.267-0.65,0.4-0.95
			c0.034-0.034,0.05-0.067,0.05-0.1c3.066-6.934,6.267-11.817,9.6-14.65v-0.05c4.066-3.3,8.75-5.5,14.05-6.6h0.05
			c1.133-0.167,2.15-0.017,3.05,0.45c-1.067,2.267-1.85,4.85-2.35,7.75c-0.1,0.5,0.017,0.967,0.35,1.4c0.3,0.434,0.7,0.7,1.2,0.8
			c0.534,0.1,1.017,0,1.45-0.3c0.433-0.333,0.7-0.75,0.8-1.25c0.6-3.467,1.65-6.417,3.15-8.85c1.933-3.4,4.767-5.55,8.5-6.45
			c3.7-0.9,6.367-0.167,8,2.2c1.233,1.9,2.183,4.617,2.85,8.15c0.1,0.533,0.383,0.95,0.85,1.25c0.434,0.3,0.9,0.4,1.4,0.3
			c0.534-0.1,0.95-0.367,1.25-0.8c0.3-0.467,0.4-0.95,0.3-1.45c-0.7-3.633-1.667-6.55-2.9-8.75c6.733-2.8,14.55-5.05,23.45-6.75
			h-0.05c27.2-4.333,51.583,3,73.15,22c24.533,25.067,30.384,54.7,17.55,88.9c-6.133,16.399-15.316,28.199-27.55,35.399
			c-0.066,0-0.116,0.017-0.15,0.05c-9.966,6.534-21.683,10.334-35.149,11.4c-5.3,0.1-8.816-1.517-10.55-4.85
			c-0.034-0.101-0.051-0.167-0.051-0.2c-0.166-0.434-0.283-0.851-0.35-1.25c-0.8-3.566-0.2-6.617,1.8-9.15V342
			c2.834-3.733,6.233-6.566,10.2-8.5c0.033-0.033,0.066-0.05,0.1-0.05c2.733-1.566,5.017-3.417,6.851-5.55l0.05-0.051
			c0.033-0.033,0.083-0.083,0.15-0.149c0-0.033,0.017-0.05,0.05-0.05c3.066-3.667,4.916-8.217,5.55-13.65
			c0.033-0.533-0.116-1.017-0.45-1.45c-0.333-0.399-0.75-0.633-1.25-0.7c-0.533-0.066-1.017,0.067-1.45,0.4s-0.666,0.767-0.699,1.3
			c-0.4,3.5-1.4,6.584-3,9.25c-4.034-7.1-9.7-12.566-17-16.399c3-4.034,5.767-8.667,8.3-13.9C420.434,292,420.467,291.5,420.3,291z
			 M339.25,205.1c0.767,0.733,1.417,1.85,1.95,3.35c-5.4,1.233-10.217,3.5-14.45,6.8c1.433-5.233,4.55-8.667,9.35-10.3
			C337.333,204.483,338.383,204.533,339.25,205.1z M337.3,259.85c-0.667,0.566-1.633,0.9-2.9,1c-1.167-0.1-2.017-0.35-2.55-0.75
			c-0.267-0.333-0.35-0.733-0.25-1.2c0.333-1.767,1.45-2.883,3.35-3.35c1.633,0.1,2.65,0.733,3.05,1.9
			C338.033,258.45,337.8,259.25,337.3,259.85z M334.5,251.75c-3.9,0.767-6.133,2.933-6.7,6.5c-0.333,2,0.15,3.55,1.45,4.65
			c1,1,2.65,1.617,4.95,1.85c0.1,0,0.2,0,0.3,0c2.5-0.2,4.333-0.933,5.5-2.2c1.333-1.267,1.95-3.083,1.85-5.45
			c-0.033-0.1-0.05-0.184-0.05-0.25c-0.566-3.3-2.85-5.017-6.85-5.15C334.783,251.667,334.633,251.683,334.5,251.75z M404.35,314.85
			l5.15-5.399c7.4,3.767,13.017,9.333,16.85,16.7c-1.399,1.466-3.083,2.767-5.05,3.899c-0.033,0-0.066,0.017-0.1,0.05
			c-4.434,2.2-8.267,5.384-11.5,9.551c-4.334-1-7.066-3.167-8.2-6.5c-0.3-1.067-0.45-2.233-0.45-3.5
			c-0.366-5.034,0.733-9.95,3.3-14.75L404.35,314.85L404.35,314.85z M357.8,311.65c-1.933,3.666-3.267,7.316-4,10.949
			c-4.267,0.967-7.316-0.883-9.15-5.55c-1.533-5.233-1.5-13.116,0.1-23.65c5.1-0.2,10.667,1.4,16.7,4.8
			c-0.3,4.5-1.517,9.017-3.65,13.55L357.8,311.65L357.8,311.65z"/>
	</g>
</g>
</svg>
