<?xml version="1.0" encoding="utf-8"?>
<!-- Generator: Adobe Illustrator 17.0.0, SVG Export Plug-In . SVG Version: 6.00 Build 0)  -->
<!DOCTYPE svg PUBLIC "-//W3C//DTD SVG 1.1//EN" "http://www.w3.org/Graphics/SVG/1.1/DTD/svg11.dtd">
<svg version="1.1" xmlns="http://www.w3.org/2000/svg" xmlns:xlink="http://www.w3.org/1999/xlink" x="0px" y="0px" width="267px"
	 height="267px" viewBox="0 0 267 267" enable-background="new 0 0 267 267" xml:space="preserve">
<g id="Layer_1">
	<g id="rDR3c0.tif">
		
			<image overflow="visible" width="267" height="267" id="Layer_0" xlink:href="52FEBB9BFB844B9D.png"  transform="matrix(1 0 0 1 0 -1)">
		</image>
	</g>
</g>
<g id="Layer_2">
	<path fill="#CAD9E7" d="M151.924,226.982l5.684,3.283l2.131,9.848l-8.721,1.641l0.22,2.327
		c-11.906,1.176-23.804,1.225-35.694,0.147l0.22-2.327c-2.842-0.392-6.223-1.045-10.142-1.96l1.298-8.207l7.521-4.557
		C126.936,232.699,139.43,232.634,151.924,226.982 M161.993,250.476l2.768,12.739c-20.611,5.047-41.386,5.047-62.323,0l1.519-12.666
		c3.61,0.817,7.219,1.478,10.828,1.984l-0.392,4.434c12.657,1.062,25.331,1.021,38.021-0.122l-0.416-4.483
		C155.329,251.856,158.661,251.228,161.993,250.476"/>
	<path fill="#663300" d="M62.702,136.56c-5.39-9.146-8.199-19.215-8.427-30.206v-0.049c0.033-2.14,0.719-3.96,2.058-5.463
		c1.944-2.434,2.507-5.194,1.69-8.28c-0.653-1.78-0.653-3.561,0-5.341c9.946-25.919,24.792-36.756,44.538-32.509
		c2.254,0.441,4.369,0.212,6.345-0.686c1.421-0.882,2.466-2.066,3.136-3.552c1.111-2.532,1.192-4.597,0.245-6.198
		c2.564,1.062,4.14,3.871,4.728,8.427c3.528-4.524,7.219-6.819,11.073-6.884c-2.777,3.495-3.757,6.149-2.94,7.962
		c0.947,1.078,2.539,1.356,4.777,0.833c54.631-8.182,81.399-0.457,80.305,23.175c10.305,14.34,12.519,26.883,6.639,37.629
		c-3.936,2.319-6.778,6.81-8.525,13.474c-0.376,1.454-0.702,3.013-0.98,4.679c-1.29-3.479-2.245-7.039-2.866-10.681
		c-3.103-0.327-5.292-1.503-6.565-3.528c0.343,4.247,1.984,7.521,4.924,9.824c-1.111,0.866-2.752,1.29-4.924,1.274
		c-3.479-0.049-8.313-1.209-14.503-3.479c0.637,2.842,3.176,5.055,7.619,6.639c-8.264,1.535-20.154-1.258-35.669-8.378
		c0.947,6.125,3.822,10.967,8.623,14.527c-22.424-1.617-36.282-12.935-41.573-33.954c-4.981,11.775-11.294,18.333-18.937,19.672
		c2.156-3.675,2.156-7.358,0-11.049c-3.969,4.9-8.395,7.856-13.278,8.868c-4.034,0.833-8.378,0.335-13.033-1.494
		c2.793-2.319,4.1-4.042,3.92-5.169c-2.695,3.414-6.549,5.381-11.563,5.904c-0.947,3.365-1.764,6.606-2.45,9.726
		c-0.653,2.973-1.192,5.839-1.617,8.599C64.474,139.45,63.551,138.013,62.702,136.56"/>
	<path fill="#47526F" d="M161.993,250.476c-3.332,0.751-6.663,1.38-9.995,1.886l0.416,4.483c-12.69,1.143-25.364,1.184-38.021,0.122
		l0.392-4.434c-3.61-0.506-7.219-1.168-10.828-1.984l1.666-10.608c3.92,0.915,7.3,1.568,10.142,1.96l-0.22,2.327
		c11.89,1.078,23.788,1.029,35.694-0.147l-0.22-2.327l8.721-1.641L161.993,250.476 M138.891,219.461l13.033,7.521
		c-12.494,5.651-24.988,5.716-37.482,0.196l12.666-7.717C131.043,221.372,134.971,221.372,138.891,219.461"/>
	<path fill="#EEEEEE" d="M152.463,170.318v4.459c-2.646,1.258-5.504,1.895-8.574,1.911v-5.316h0.245l2.964-0.171L152.463,170.318
		 M142.663,171.347v5.316h-0.735l-3.013-0.245c-2.205-0.408-4.32-1.233-6.345-2.474v-5.733l3.258,1.543
		c1.535,0.719,3.242,1.2,5.12,1.445l0.98,0.098l0.245,0.024L142.663,171.347"/>
	<path fill="#E1CAB7" d="M152.463,170.318l-5.365,0.882l-2.964,0.171h-0.245h-0.71l-0.269-0.025h-0.245l-0.49-0.024l-0.245-0.024
		l-0.98-0.098c-1.878-0.245-3.585-0.727-5.12-1.445l-3.258-1.543l-0.931-0.465l-0.22-0.098l-1.421-0.735l-3.258-1.715
		c-1.731-0.506-3.25-0.768-4.557-0.784c-1.976-0.049-3.446,0.457-4.41,1.519c-0.555,0.588-0.939,1.364-1.151,2.327
		c-0.082,0.376-0.139,0.784-0.171,1.225c-0.261,3.25,1.65,6.19,5.733,8.819c1.666,1.062,3.691,2.074,6.076,3.038l0.735,0.294
		l2.425,0.808l1.151,0.294c2.94,0.702,6.141,0.972,9.603,0.808h0.22l0.784-0.049l0.955-0.073c2.63-0.245,5.406-0.727,8.329-1.445
		l1.127-0.269l0.098-0.024l0.441-0.122l6.419-2.033l1.96-0.71l0.49-0.196c4.116-1.944,6.149-4.026,6.1-6.247
		c-0.098-0.964-0.269-1.805-0.514-2.523l-0.539-1.151c-1.094-1.829-2.94-2.425-5.537-1.788c-0.604,0.131-1.258,0.343-1.96,0.637
		l-1.543,0.686c-1.666,0.702-3.438,1.298-5.316,1.788l-0.098,0.025l-0.196,0.049l-0.588,0.147L152.463,170.318 M208.343,128.892
		c2.891-1.111,4.826,2.017,5.806,9.383c0.98,7.366-0.523,10.322-4.508,8.868c1.993,29.382-18.79,44.456-62.348,45.224
		c-3.495,0.229-5.814,1.388-6.957,3.479c-3.936,7.039-4.418,14.911-1.445,23.616c-3.92,1.911-7.848,1.911-11.784,0
		c2.499-16.283-4.23-24.457-20.186-24.523c-26.36-0.114-40.504-11.498-42.431-34.15c-4.198,1.601-7.015-1.731-8.452-9.995
		c-1.437-8.264,0.784-13.008,6.663-14.233c0.849,1.454,1.772,2.891,2.768,4.312c0.425-2.76,0.964-5.626,1.617-8.599
		c0.686-3.12,1.503-6.361,2.45-9.726c5.014-0.523,8.868-2.49,11.563-5.904c0.18,1.127-1.127,2.85-3.92,5.169
		c4.655,1.829,8.999,2.327,13.033,1.494c4.883-1.013,9.309-3.969,13.278-8.868c2.156,3.691,2.156,7.374,0,11.049
		c7.643-1.339,13.956-7.897,18.937-19.672c5.292,21.019,19.149,32.338,41.573,33.954c-4.802-3.561-7.676-8.403-8.623-14.527
		c15.516,7.121,27.405,9.913,35.669,8.378c-4.442-1.584-6.982-3.797-7.619-6.639c6.19,2.27,11.024,3.43,14.503,3.479
		c2.172,0.016,3.813-0.408,4.924-1.274c-2.94-2.303-4.581-5.577-4.924-9.824c1.274,2.025,3.463,3.201,6.565,3.528
		c0.621,3.642,1.576,7.202,2.866,10.681C207.641,131.905,207.967,130.345,208.343,128.892 M192.517,146.408l-5.904-5.414
		l-5.169,5.659l5.169-5.659L192.517,146.408 M105.941,150.083l-5.169-5.904l-6.884,6.394l6.884-6.394L105.941,150.083
		 M148.004,160.666c5.504-1.797,4.932-5.406-1.715-10.828C152.937,155.26,153.508,158.87,148.004,160.666"/>
	<path fill="#B55757" d="M152.463,170.318l0.343-0.074l0.588-0.147l0.196-0.049l0.098-0.025c1.878-0.49,3.65-1.086,5.316-1.788
		l1.543-0.686c0.702-0.294,1.356-0.506,1.96-0.637c2.597-0.637,4.442-0.041,5.537,1.788l0.539,1.151
		c0.245,0.719,0.416,1.56,0.514,2.523c0.049,2.221-1.984,4.303-6.1,6.247l-0.49,0.196l-1.96,0.71l-6.419,2.033l-0.441,0.122
		l-0.098,0.024l-1.127,0.269c-2.924,0.719-5.7,1.2-8.329,1.445l-0.955,0.074l-0.784,0.049h-0.22
		c-3.463,0.163-6.663-0.106-9.603-0.808l-1.151-0.294l-2.425-0.808l-0.735-0.294c-2.385-0.964-4.41-1.976-6.076-3.038
		c-4.083-2.63-5.994-5.569-5.733-8.819c0.033-0.441,0.09-0.849,0.171-1.225c0.212-0.964,0.596-1.739,1.151-2.327
		c0.964-1.062,2.434-1.568,4.41-1.519c1.307,0.016,2.826,0.278,4.557,0.784l3.258,1.715l1.421,0.735l0.22,0.098l0.931,0.465v5.733
		c2.025,1.241,4.14,2.066,6.345,2.474l3.013,0.245h0.735v-5.316h0.245l0.269,0.024h0.71v5.316c3.071-0.016,5.929-0.653,8.574-1.911
		L152.463,170.318"/>
	<path fill="none" stroke="#916F51" stroke-width="2" stroke-linecap="square" stroke-linejoin="round" d="M181.444,146.653
		l5.169-5.659l5.904,5.414 M146.289,149.838c6.647,5.422,7.219,9.031,1.715,10.828 M93.888,150.573l6.884-6.394l5.169,5.904"/>
</g>
</svg>
